<?xml version="1.0" encoding="utf-8"?>
<!-- Generator: Adobe Illustrator 24.3.0, SVG Export Plug-In . SVG Version: 6.00 Build 0)  -->
<svg version="1.1" id="Layer_1" xmlns="http://www.w3.org/2000/svg" xmlns:xlink="http://www.w3.org/1999/xlink" x="0px" y="0px"
	 viewBox="0 0 24 30" style="enable-background:new 0 0 24 30;" xml:space="preserve">
<style type="text/css">
	.st0{fill-rule:evenodd;clip-rule:evenodd;}
</style>
<desc>Created with Sketch.</desc>
<g>
	<g>
		<path class="st0" d="M4.8,6.8L7.3,11l-2.5,4.2L2.5,11L4.8,6.8z M10.3,6.5l2.5,4.2H7.7L5.2,6.5H10.3z M10.6,15.9L10.6,15.9
			L10.6,15.9l2.9-4.8l0,0c0,0,0,0,0-0.1l0,0l0,0c0,0,0,0,0-0.1l0,0l-2.8-4.7l0,0c0,0,0,0-0.1-0.1h-0.1l0,0H4.8l0,0c0,0,0,0-0.1,0
			l0,0l0,0l0,0l0,0L2,10.9l0,0V11v0.1l0,0l2.5,4.7l0,0l0,0l0,0l0,0l0,0h0.1h5.7C10.5,16,10.6,16,10.6,15.9L10.6,15.9z"/>
		<path class="st0" d="M11,17.5l4.5,2l0.3,4.9l-4.3-2.2L11,17.5z M15.4,14.1l4.5,2L15.7,19l-4.5-2L15.4,14.1z M21,21.6L21,21.6
			l-0.4-5.5l0,0c0,0,0,0,0-0.1l0,0l0,0l0,0l0,0l-5-2.2l0,0h-0.1h-0.1l0,0l-4.7,3.3l0,0l0,0l0,0l0,0c0,0,0,0,0,0.1l0,0l0.6,5.3l0,0
			c0,0,0,0,0,0.1c0,0,0,0.1,0.1,0.1l0,0l4.8,2.4h0.1l0,0l0,0l0,0l0,0h0.1l0,0l4.7-3.3l0,0C20.9,21.8,21,21.7,21,21.6
			C21,21.7,21,21.6,21,21.6L21,21.6z"/>
	</g>
</g>
</svg>
