<svg width="64" height="64" xmlns="http://www.w3.org/2000/svg"><path d="M43.58 20.424a1 1 0 00-.761-.294c-14.028.732-19.21 13.228-19.26 13.354a1 1 0 00.22 1.08l5.657 5.657a1 1 0 001.085.218c.125-.051 12.554-5.291 13.348-19.253a1 1 0 00-.289-.762zm-8.166 10.99a2 2 0 11-2.829-2.828 2 2 0 012.829 2.828z" fill="#4A61DD"/><path d="M21.113 38.844a2.844 2.844 0 114.022 4.022C24.024 43.977 20 44 20 44s0-4.046 1.113-5.156zm9.244-16.503a8.911 8.911 0 00-7.835 2.484 9.06 9.06 0 00-1.384 1.8 1 1 0 00.155 1.215l1.989 1.99a26.623 26.623 0 017.075-7.489zm11.302 11.302a8.911 8.911 0 01-2.484 7.835 9.06 9.06 0 01-1.8 1.384 1 1 0 01-1.215-.155l-1.99-1.989a26.623 26.623 0 007.489-7.075z" fill-opacity=".8" fill="#CCD4FF"/></svg>